<svg xmlns="http://www.w3.org/2000/svg" xmlns:xlink="http://www.w3.org/1999/xlink" version="1.2" baseProfile="tiny" id="Calque_1" x="0px" y="0px" width="56.693px" height="56.693px" viewBox="0 0 56.693 56.693" xml:space="preserve">
<path fill="#000000" d="M37.436,41.624H14.545c-0.969,0-1.752,0.785-1.752,1.753s0.783,1.752,1.752,1.752h22.892  c0.967,0,1.752-0.784,1.752-1.752S38.402,41.624,37.436,41.624z M42.582,26.29h-5.36v-1.521c0-0.969-0.789-1.766-1.759-1.766H16.625  c-0.967,0-1.748,0.796-1.748,1.766v7.428c0,4.42,3.658,8.003,8.16,8.003h6.234c2.149,0,4.158-0.829,5.649-2.344  c0.478-0.483,0.875-1.022,1.209-1.599h3.955c2.066,0,3.814-1.785,3.814-3.915v-4.728C43.9,26.891,43.309,26.29,42.582,26.29z   M33.715,32.197c0,2.529-1.955,4.499-4.442,4.499h-6.234c-2.567,0-4.656-2.012-4.656-4.499v-5.688h15.334L33.715,32.197  L33.715,32.197z M41.271,32.344c0,0.691-0.558,1.285-1.187,1.285h-2.994c0.08-0.468,0.13-0.944,0.13-1.432v-3.278h4.051V32.344z   M26.154,20.855c0.311,0,0.623-0.11,0.873-0.333c0.543-0.481,0.592-1.313,0.109-1.855c-0.714-0.8-0.947-1.804-0.63-2.687  c0.101-0.263,0.341-0.522,0.615-0.824c0.385-0.419,0.863-0.941,1.142-1.682c0.002-0.003,0.002-0.008,0.004-0.013  c0.672-1.846,0.194-4.014-1.185-5.395c-0.514-0.513-1.346-0.513-1.858,0.001c-0.515,0.513-0.515,1.345,0,1.857  c0.649,0.649,0.891,1.755,0.575,2.632c-0.102,0.262-0.34,0.521-0.614,0.822c-0.386,0.419-0.863,0.941-1.142,1.683  c-0.002,0.004-0.002,0.009-0.004,0.013c-0.658,1.807-0.233,3.802,1.131,5.338C25.432,20.706,25.793,20.855,26.154,20.855z"/>
</svg>