<svg xmlns:dc="http://purl.org/dc/elements/1.1/" xmlns:cc="http://creativecommons.org/ns#" xmlns:rdf="http://www.w3.org/1999/02/22-rdf-syntax-ns#" xmlns:svg="http://www.w3.org/2000/svg" xmlns="http://www.w3.org/2000/svg" xmlns:sodipodi="http://sodipodi.sourceforge.net/DTD/sodipodi-0.dtd" xmlns:inkscape="http://www.inkscape.org/namespaces/inkscape" version="1.1" x="0px" y="0px" viewBox="0 0 128 160" enable-background="new 0 0 128 128" xml:space="preserve"><path style="" d="M 64 7 C 63 7 62 7.5003906 61.5 8.4003906 C 59.9 10.900391 51.699219 23.7 51.699219 29.5 C 51.699219 36.4 57.2 42 64 42 C 70.8 42 76.300781 36.4 76.300781 29.5 C 76.300781 23.7 68.2 10.900391 66.5 8.4003906 C 66 7.5003906 65 7 64 7 z M 29.5 19 C 28.4 19 27.400391 19.599609 26.900391 20.599609 C 26.400391 21.599609 26.4 22.799219 27 23.699219 L 46.5 52.900391 L 46.5 64 L 42 64 C 34.8 64 29 69.8 29 77 L 29 121 C 29 122.7 30.3 124 32 124 L 96 124 C 97.7 124 99 122.7 99 121 L 99 77 C 99 69.8 93.2 64 86 64 L 81.5 64 L 81.5 52.900391 L 101 23.699219 C 101.6 22.799219 101.69961 21.599609 101.09961 20.599609 C 100.49961 19.599609 99.6 19 98.5 19 L 85.5 19 C 83.8 19 82.5 20.3 82.5 22 C 82.5 23.7 83.8 25 85.5 25 L 92.900391 25 L 76.900391 49 L 67 49 L 67 47 C 67 45.3 65.7 44 64 44 C 62.3 44 61 45.3 61 47 L 61 49 L 51.099609 49 L 35.099609 25 L 42.5 25 C 44.2 25 45.5 23.7 45.5 22 C 45.5 20.3 44.2 19 42.5 19 L 29.5 19 z M 64 23.800781 C 65.9 27.400781 67.200781 30.399609 67.300781 31.599609 C 67.300781 33.499609 65.8 35 64 35 C 62.2 35 60.699219 33.4 60.699219 31.5 C 60.799219 30.3 62.1 27.300781 64 23.800781 z M 52.5 55 L 64 55 C 66.5 55 68.5 57 68.5 59.5 C 68.5 62 66.5 64 64 64 L 52.5 64 L 52.5 55 z M 42 70 L 49.5 70 L 74.900391 70 C 77.600391 70 79.999219 71.800781 80.699219 74.300781 C 80.899219 75.100781 81.099609 76 81.099609 77 L 81.099609 112 C 81.099609 115.3 78.399609 118 75.099609 118 L 35 118 L 35 77 C 35 73.1 38.1 70 42 70 z " fill="#000000" stroke="none"/></svg>
