<svg xmlns="http://www.w3.org/2000/svg" xmlns:xlink="http://www.w3.org/1999/xlink" version="1.1" x="0px" y="0px" width="100px" height="100px" viewBox="0 0 100 100" enable-background="new 0 0 100 100" xml:space="preserve">
<g id="Captions">
	<rect x="-606" y="-276" width="185" height="99"/>
	<rect x="-414" y="-312" width="100" height="30"/>
	<text transform="matrix(1 0 0 1 -348 -295.5)" fill="#000000" font-family="'Helvetica'" font-size="2.4">http://thenounproject.com</text>
	<text transform="matrix(1 0 0 1 -406.834 -300.5)"><tspan x="0" y="0" fill="#000000" font-family="'Helvetica-Bold'" font-size="6.1578">The Noun Project</tspan><tspan x="1.12" y="4.8" fill="#000000" font-family="'Helvetica-Bold'" font-size="4">Icon Template</tspan></text>
	<text transform="matrix(1 0 0 1 -592.5 -265.5)" fill="#000000" font-family="'Helvetica-Bold'" font-size="6.1578">Reminders</text>
	<line fill="#000000" stroke="#FFFFFF" stroke-miterlimit="10" x1="-406" y1="-290.5" x2="-396" y2="-290.5"/>
	<line fill="#000000" stroke="#FFFFFF" stroke-miterlimit="10" x1="-593" y1="-259.5" x2="-576" y2="-259.5"/>
	<g>
		<g>
			<g>
				<rect x="-584.802" y="-244.682" fill="#000000" width="8.721" height="8.642"/>
				<path fill="#000000" d="M-578.455-233.688h4.747v-4.703h-4.747V-233.688z M-573.266-233.251h-5.63v-5.579h5.63V-233.251      L-573.266-233.251z M-580.221-231.938h8.279v-8.203h-8.279V-231.938L-580.221-231.938z M-571.5-231.5h-9.163v-9.079h9.163      V-231.5L-571.5-231.5z"/>
				<polygon fill="#000000" points="-580.149,-231.867 -580.292,-232.009 -572.013,-240.213 -571.871,-240.071     "/>
			</g>
		</g>
	</g>
	<rect x="-593" y="-218" fill="none" width="35" height="32.5"/>
	<text transform="matrix(1 0 0 1 -593 -215.8428)"><tspan x="0" y="0" fill="#000000" font-family="'Helvetica-Bold'" font-size="3">Strokes</tspan><tspan x="0" y="5" fill="#000000" font-family="'Helvetica'" font-size="2.4">Try to keep strokes at 4px</tspan><tspan x="0" y="10" fill="#000000" font-family="'Helvetica'" font-size="2.4">Minimum stroke weight is 2px</tspan><tspan x="0" y="14.5" fill="#000000" font-family="'Helvetica'" font-size="2.4">For thicker strokes use even </tspan><tspan x="0" y="17.5" fill="#000000" font-family="'Helvetica'" font-size="2.4">numbers: 6px, 8px etc.</tspan><tspan x="0" y="22" fill="#000000" font-family="'Helvetica-Bold'" font-size="2.4">Remember to expand strokes </tspan><tspan x="0" y="25" fill="#000000" font-family="'Helvetica-Bold'" font-size="2.4">before saving as an SVG </tspan></text>
	<rect x="-550.5" y="-218" fill="none" width="35" height="32.5"/>
	<text transform="matrix(1 0 0 1 -550.5 -215.8428)"><tspan x="0" y="0" fill="#000000" font-family="'Helvetica-Bold'" font-size="3">Size</tspan><tspan x="0" y="5" fill="#000000" font-family="'Helvetica'" font-size="2.4">Cannot be wider or taller than </tspan><tspan x="0" y="8.5" fill="#000000" font-family="'Helvetica'" font-size="2.4">100px (artboard size)</tspan><tspan x="0" y="13.5" fill="#000000" font-family="'Helvetica'" font-size="2.4">Scale your icon to fill as much of </tspan><tspan x="0" y="16.5" fill="#000000" font-family="'Helvetica'" font-size="2.4">the artboard as possible</tspan></text>
	<rect x="-508" y="-218" fill="none" width="35" height="32.5"/>
	<text transform="matrix(1 0 0 1 -508 -215.8428)"><tspan x="0" y="0" fill="#000000" font-family="'Helvetica-Bold'" font-size="3">Ungroup</tspan><tspan x="0" y="5" fill="#000000" font-family="'Helvetica'" font-size="2.4">If your design has more than one </tspan><tspan x="0" y="8" fill="#000000" font-family="'Helvetica'" font-size="2.4">shape, make sure to ungroup</tspan></text>
	<rect x="-464" y="-218" fill="none" width="35" height="32.5"/>
	<text transform="matrix(1 0 0 1 -464 -215.8428)"><tspan x="0" y="0" fill="#000000" font-family="'Helvetica-Bold'" font-size="3">Save as</tspan><tspan x="0" y="5" fill="#000000" font-family="'Helvetica'" font-size="2.4">Save as .SVG and make sure </tspan><tspan x="0" y="8" fill="#000000" font-family="'Helvetica'" font-size="2.4">&#8220;Use Artboards&#8221; is checked</tspan></text>
	<text transform="matrix(1.0074 0 0 1 -539.542 -245.4067)" fill="#000000" font-family="'Helvetica'" font-size="2.5731">100px</text>
	<text transform="matrix(1.0074 0 0 1 -455 -237)" fill="#000000" font-family="'Helvetica-Bold'" font-size="5.1462">.SVG</text>
	<rect x="-540.514" y="-241.185" fill="#000000" width="10.261" height="10.185"/>
	<rect x="-540.477" y="-244.234" fill="#000000" width="0.522" height="2.337"/>
	<rect x="-530.812" y="-244.234" fill="#000000" width="0.523" height="2.337"/>
	<rect x="-541" y="-243.663" fill="#000000" width="11.233" height="0.572"/>
	<g>
		<rect x="-497.805" y="-242.156" fill="#000000" width="10.305" height="10.156"/>
		<rect x="-490.809" y="-247.293" fill="#000000" width="3.308" height="3.261"/>
	</g>
	<rect x="-592.5" y="-253.5" fill="#000000" stroke="#FFFFFF" stroke-miterlimit="10" width="30" height="30"/>
	<rect x="-550.5" y="-253.5" fill="#000000" stroke="#FFFFFF" stroke-miterlimit="10" width="30" height="30"/>
	<rect x="-507.5" y="-253.5" fill="#000000" stroke="#FFFFFF" stroke-miterlimit="10" width="30" height="30"/>
	<rect x="-463.5" y="-253.5" fill="#000000" stroke="#FFFFFF" stroke-miterlimit="10" width="30" height="30"/>
</g>
<g id="Your_Icon">
	<g>
		<path d="M-379.384-224.472c4.111,2.507,8.986,3.344,15.384,3.344s11.545-1.256,15.384-3.342c1.705-0.927,4.28-4.448,6.797-9.002    c10.399-0.473,16.714-6.496,16.857-12.412c0.09-3.687-2.324-8.009-9.133-9.247c0.069-0.708,0.111-1.393,0.111-2.044    c0-3.087,0-11.289-30.017-11.289s-30.017,8.202-30.017,11.29C-394.017-246.524-383.682-227.093-379.384-224.472z     M-337.149-255.455l-0.179,4.458l0,0L-337.149-255.455z M-334.882-250h0.002c3.46,0,5.512,1.996,5.455,4.369    c-0.069,2.813-3.322,6.87-9.988,7.956C-337.516-241.735-335.85-246-334.882-250z M-387.318-257.173    c0-2.536,10.439-4.592,23.318-4.592s23.318,2.056,23.318,4.592s-10.439,4.592-23.318,4.592S-387.318-254.637-387.318-257.173z"/>
		<path d="M-315.191-212.783c-0.486-0.2-1.008-0.19-1.463-0.016l-0.73,0.297l-2.503,1.005c-1.577,0.633-3.438,0.615-5.159-0.098    c-1.707-0.709-2.906-2.082-3.569-3.648c-0.639-1.576-0.77-3.41-0.061-5.119c0.713-1.721,2.017-3.048,3.575-3.717l2.483-1.059    l0.727-0.307c0.442-0.199,0.822-0.557,1.022-1.045c0.405-0.977-0.044-2.093-1.005-2.489l-0.148-0.063    c-2.917-1.014-6.173-0.936-9.26,0.379c-4.48,1.917-7.439,6.021-8.106,10.569l-7.079,2.926L-364-207.905l-17.532-7.264    l-7.079-2.926c-0.667-4.548-3.626-8.652-8.106-10.569c-3.087-1.314-6.343-1.393-9.26-0.379l-0.148,0.063    c-0.961,0.396-1.41,1.513-1.005,2.489c0.2,0.488,0.58,0.846,1.022,1.045l0.727,0.307l2.483,1.059    c1.559,0.669,2.862,1.996,3.575,3.717c0.709,1.709,0.578,3.543-0.061,5.119c-0.663,1.566-1.862,2.939-3.569,3.648    c-1.721,0.713-3.582,0.73-5.159,0.098l-2.503-1.005l-0.73-0.297c-0.455-0.175-0.977-0.185-1.463,0.016    c-0.977,0.403-1.447,1.511-1.051,2.472l0.063,0.148c1.345,2.78,3.702,5.023,6.815,6.279c4.522,1.812,9.52,1.012,13.215-1.735    l7.066,2.919l5.067,2.101l-9.925,4.112c-1.581,0.658-2.883,1.978-3.589,3.68c-1.413,3.414,0.2,7.315,3.615,8.728    c1.702,0.707,3.558,0.718,5.141,0.065l22.39-9.278l22.39,9.278c1.583,0.652,3.438,0.642,5.141-0.065    c3.415-1.412,5.028-5.313,3.615-8.728c-0.706-1.702-2.008-3.021-3.589-3.68l-9.925-4.112l5.067-2.101l7.066-2.919    c3.695,2.747,8.692,3.548,13.215,1.735c3.113-1.256,5.471-3.499,6.815-6.279l0.063-0.148    C-313.744-211.272-314.215-212.38-315.191-212.783z M-386.146-189.596c-0.504,1.217-1.901,1.794-3.118,1.291    c-1.216-0.504-1.794-1.901-1.29-3.118c0.506-1.217,1.901-1.795,3.117-1.291C-386.22-192.21-385.642-190.812-386.146-189.596z     M-340.563-192.714c1.216-0.504,2.611,0.074,3.117,1.291c0.504,1.217-0.074,2.614-1.29,3.118    c-1.217,0.503-2.614-0.074-3.118-1.291S-341.78-192.21-340.563-192.714z"/>
	</g>
	<path d="M-211.521-228.566c-1.031,1.034-1.879,0.685-1.879-0.776v-20.032c0-1.46-0.841-1.81-1.872-0.779l-21.593,21.587   c-1.031,1.034-2.003,0.69-2.157-0.761l-4.746-44.03c-0.157-1.455-1.481-2.643-2.939-2.643h-9.403c-1.464,0-2.72,1.194-2.797,2.655   l-5.031,94.691c-0.08,1.46,1.055,2.654,2.513,2.654h70.716c1.458,0,2.654-1.197,2.654-2.657v-70.716c0-1.46-0.844-1.81-1.875-0.779   L-211.521-228.566z M-213.4-191.329c0,1.46-1.19,2.654-2.651,2.654h-20.031c-1.464,0-2.654-1.194-2.654-2.654v-20.032   c0-1.46,1.19-2.654,2.654-2.654h20.031c1.461,0,2.651,1.194,2.651,2.654V-191.329z"/>
	<path d="M-38.529-232.312l-14.556-8.454l14.556-8.456c0.327-0.189,0.529-0.54,0.529-0.918s-0.202-0.726-0.529-0.915L-71.33-269.99   c-0.327-0.189-0.733-0.192-1.061,0.002L-88-260.923l-15.606-9.065c-0.33-0.194-0.733-0.192-1.063-0.002l-32.801,18.935   c-0.327,0.189-0.529,0.537-0.529,0.915s0.202,0.729,0.529,0.918l14.556,8.456l-14.556,8.454c-0.327,0.189-0.529,0.54-0.529,0.918   c0,0.378,0.202,0.729,0.529,0.917l15.606,9.007v19.609c0,0.379,0.202,0.729,0.529,0.918l32.801,18.935   c0.022,0.013,0.051,0.018,0.076,0.03c0.031,0.016,0.06,0.026,0.087,0.036c0.12,0.044,0.24,0.074,0.366,0.074   c0.125,0,0.245-0.03,0.362-0.074c0.031-0.01,0.06-0.021,0.087-0.036c0.028-0.01,0.057-0.018,0.08-0.03l32.801-18.935   c0.327-0.189,0.528-0.539,0.528-0.918v-19.603l15.617-9.014c0.327-0.189,0.526-0.54,0.529-0.917   C-38-231.772-38.202-232.123-38.529-232.312z M-71.856-267.848l30.679,17.713l-14.024,8.147l-30.682-17.713L-71.856-267.848z    M-134.822-250.135l30.682-17.713l14.021,8.145l-30.685,17.713L-134.822-250.135z M-134.825-231.399l14.021-8.142l30.685,17.71   l-14.021,8.146L-134.825-231.399z M-89.063-184.764l-30.682-17.71v-17.772l15.075,8.702c0.166,0.095,0.348,0.144,0.529,0.144   c0.187,0,0.368-0.049,0.534-0.146l14.551-8.452L-89.063-184.764z M-86.944-223.952c0,0.585-0.476,1.058-1.061,1.058   c-0.586,0-1.062-0.473-1.062-1.058v-33.627c0-0.588,0.476-1.061,1.062-1.061c0.585,0,1.061,0.473,1.061,1.061V-223.952z    M-56.266-202.474l-30.679,17.71l0.011-35.227l14.543,8.444c0.327,0.191,0.733,0.191,1.061,0.002l15.064-8.696V-202.474z    M-71.856-213.686l-14.024-8.146l30.679-17.715l14.024,8.147L-71.856-213.686z"/>
	<g>
		<path d="M49.998-231.083c2.422-5.869,12.434-30.137,13.147-31.879C63.086-270.162,57.21-276,49.998-276    s-13.087,5.838-13.146,13.038C37.566-261.221,47.577-236.952,49.998-231.083z"/>
		<path d="M82.812-255.21c-2.485-2.485-5.788-3.854-9.299-3.854c-3.474,0-6.744,1.338-9.216,3.772L51.049-223.45l30.178-12.557    l1.66-0.692c2.435-2.474,3.774-5.743,3.774-9.216C86.663-249.425,85.295-252.727,82.812-255.21z"/>
		<path d="M35.702-255.288c-2.475-2.436-5.741-3.776-9.218-3.776c-3.512,0-6.812,1.368-9.295,3.85    c-5.099,5.103-5.123,13.386-0.077,18.516l8.968,3.731l22.868,9.517L35.702-255.288z"/>
		<path d="M16.745-235.547c-7.25,0-13.146,5.898-13.146,13.147c0,7.248,5.896,13.146,13.146,13.146c0.046,0,0.093,0.006,0.135,0.017    L48.525-222.4l-31.652-13.172C16.827-235.556,16.785-235.547,16.745-235.547z"/>
		<path d="M82.81-189.592c5.092-5.092,5.123-13.379,0.082-18.51l-31.84-13.249l13.243,31.836c2.477,2.435,5.746,3.775,9.22,3.775    C77.026-185.739,80.326-187.108,82.81-189.592z"/>
		<path d="M83.121-209.232c0.042-0.015,0.087-0.021,0.131-0.021c7.249,0,13.149-5.898,13.149-13.146    c0-7.249-5.9-13.147-13.149-13.147c-0.049,0-0.095-0.006-0.142-0.018L51.471-222.4L83.121-209.232z"/>
		<path d="M49.998-176c7.217,0,13.116-5.872,13.147-13.088c0-0.062,0.011-0.12,0.028-0.176l-13.173-31.663l-13.176,31.673    c0.021,0.052,0.031,0.108,0.031,0.166C36.886-181.872,42.781-176,49.998-176z"/>
		<path d="M48.948-221.352l-31.825,13.238c-5.057,5.126-5.032,13.423,0.066,18.521c2.483,2.483,5.783,3.853,9.295,3.853    c3.477,0,6.748-1.342,9.225-3.779L48.948-221.352z"/>
	</g>
	<g>
		<g>
			<path d="M235.827-236.034L188-260.117l-47.827,24.083c-1.948,0.978-2.73,3.353-1.75,5.301c0.983,1.949,3.355,2.73,5.299,1.75     l2.008-1.01v34.823c0,1.814,1.478,3.287,3.291,3.287h11.513h54.932h11.515c1.813,0,3.289-1.473,3.289-3.287v-34.823l2.007,1.01     c0.566,0.287,1.174,0.422,1.772,0.422c1.443,0,2.833-0.795,3.529-2.172C238.558-232.681,237.775-235.056,235.827-236.034z      M216.124-217.65h-56.248v-8.114c0-0.355,0.302-0.657,0.657-0.657h54.932c0.357,0,0.659,0.302,0.659,0.657V-217.65z      M159.876-215.018h56.248v9.1h-56.248V-215.018z M160.533-194.514c-0.355,0-0.657-0.303-0.657-0.656v-8.117h56.248v8.117     c0,0.354-0.302,0.656-0.659,0.656H160.533z M227.636-195.17c0,0.354-0.301,0.656-0.656,0.656h-8.289     c0.044-0.213,0.063-0.432,0.063-0.656v-30.594c0-1.816-1.473-3.289-3.289-3.289h-54.932c-1.814,0-3.287,1.473-3.287,3.289v30.594     c0,0.225,0.02,0.443,0.063,0.656h-8.289c-0.355,0-0.656-0.303-0.656-0.656v-36.148L188-251.281l39.636,19.963V-195.17z"/>
			<path d="M178.956-241.168v5.264c0,1.812,1.471,3.284,3.287,3.284h11.514c1.814,0,3.287-1.473,3.287-3.284v-5.264     c0-1.814-1.473-3.292-3.287-3.292h-11.514C180.427-244.46,178.956-242.982,178.956-241.168z M182.243-241.828h4.443v1.973h-5.103     v-1.313C181.584-241.524,181.885-241.828,182.243-241.828z M181.584-235.904v-1.321h5.103v1.976h-4.443     C181.885-235.25,181.584-235.549,181.584-235.904z M193.757-235.25h-4.443v-1.976h5.101v1.321     C194.414-235.549,194.112-235.25,193.757-235.25z M194.414-241.168v1.313h-5.101v-1.973h4.443     C194.112-241.828,194.414-241.524,194.414-241.168z"/>
		</g>
	</g>
	<g>
		<path d="M-341.17-115.239c-9.56,0-17.948,4.937-22.804,12.39c-4.854-7.453-13.244-12.39-22.801-12.39    c-15.026,0-27.208,12.182-27.208,27.211c0,15.023,12.182,27.259,27.208,27.259c4.68,0,9.072-1.23,12.913-3.23    c-6.388,0-13.02,0-13.053,0c0,0,27.217-38.928,27.263-38.997c0.021-0.025,0.041-0.071,0.067-0.097    c0.682-0.943,1.549-1.755,2.545-2.379c1.011-0.641,2.154-1.096,3.381-1.306c0.503-0.088,1.021-0.139,1.55-0.139    c0.523,0,1.031,0.049,1.529,0.134c4.161,0.692,7.373,4.141,7.702,8.409l7.42,3.674L-343-91.043v4.908c0,0.021,0,0.046,0,0.066    c0,9.23-5.66,17.112-13.731,20.365c4.392,3.062,9.756,4.883,15.523,4.883c15.029,0,27.228-12.185,27.228-27.208    C-313.98-103.058-326.141-115.239-341.17-115.239z"/>
		<circle cx="-351.037" cy="-98.342" r="1.365"/>
	</g>
	<path d="M-200.996-102h-50.006c-13.806,0-24.997,11.15-24.997,24.959s11.191,25.055,24.997,25.055   c6.23,0,11.919-2.014,16.296-6.014h17.408c4.381,4,10.066,5.992,16.297,5.992c13.809,0,25-11.188,25-24.995   C-176.001-90.81-187.192-102-200.996-102z M-235-72h-11v11h-10v-11h-10v-10h10v-11h10v11h11V-72z M-206.19-61.487   c-2.874,0-5.204-2.327-5.204-5.196c0-2.872,2.33-5.199,5.204-5.199c2.865,0,5.194,2.327,5.194,5.199   C-200.996-63.814-203.325-61.487-206.19-61.487z M-195.802-82.281c-2.869,0-5.194-2.327-5.194-5.199s2.325-5.199,5.194-5.199   c2.875,0,5.202,2.327,5.202,5.199S-192.927-82.281-195.802-82.281z"/>
	<g>
		<rect x="-228" y="-152" width="4" height="51"/>
	</g>
	<path fill-rule="evenodd" clip-rule="evenodd" d="M-56.691-102.307c-2.505-0.461-9.614,1.483-13.699,2.492   c-5.373,1.324-9.98,2.824-12.158,6.254c-4.398,6.925-10.306,14.762-10.258,22.39c0.057,8.925,7.182,18.045,12.266,24.21   c1.467,1.777,3.672,1.903,5.305,1.757c8.548-0.769,19.62-3.71,23.49-6.039c2.975-1.79,14.036-16.731,13.74-23.664   C-38.334-82.49-48.262-100.762-56.691-102.307z M-82.46-84.871c0.901,0,1.631,1.118,1.631,2.498c0,1.379-0.729,2.498-1.631,2.498   s-1.631-1.119-1.631-2.498C-84.091-83.753-83.361-84.871-82.46-84.871z M-88.983-68.137c-0.901,0-1.631-1.119-1.631-2.498   c0-1.38,0.729-2.498,1.631-2.498s1.631,1.118,1.631,2.498C-87.353-69.256-88.082-68.137-88.983-68.137z M-85.722-74.006   c-0.901,0-1.631-1.119-1.631-2.498c0-1.38,0.729-2.498,1.631-2.498s1.631,1.118,1.631,2.498   C-84.091-75.125-84.82-74.006-85.722-74.006z M-83.066-55.604c-0.901,0-1.631-1.118-1.631-2.498c0-1.379,0.729-2.498,1.631-2.498   c0.9,0,1.631,1.119,1.631,2.498C-81.436-56.722-82.166-55.604-83.066-55.604z M-79.805-61.473c-0.901,0-1.631-1.118-1.631-2.498   c0-1.379,0.729-2.498,1.631-2.498c0.9,0,1.631,1.119,1.631,2.498C-78.174-62.591-78.904-61.473-79.805-61.473z M-76.543-67.342   c-0.901,0-1.631-1.118-1.631-2.498c0-1.379,0.729-2.498,1.631-2.498c0.9,0,1.631,1.119,1.631,2.498   C-74.912-68.46-75.643-67.342-76.543-67.342z M-74.725-88.416c-0.857-1.26-0.705-2.857,0.342-3.572   c1.047-0.713,2.591-0.271,3.449,0.988c0.858,1.258,0.705,2.857-0.341,3.57C-72.322-86.715-73.866-87.157-74.725-88.416z    M-67.86-49.312c-1.419,0.856-3.003,0.831-3.538-0.056c-0.534-0.887,0.182-2.299,1.601-3.155s3.003-0.831,3.538,0.056   C-65.726-51.58-66.441-50.168-67.86-49.312z M-70.391-62.453c-2.784-0.537-0.503-6.136-1.244-8.718   c3.921-0.601,2.82,3.825,7.472,2.492C-66.025-66.393-69.359-65.572-70.391-62.453z M-62.857-72.68   c-1.047,0.715-2.592,0.272-3.449-0.986c-0.858-1.26-0.706-2.857,0.341-3.572c1.047-0.713,2.591-0.271,3.45,0.988   C-61.658-74.992-61.811-73.393-62.857-72.68z M-55.441-91.596c-1.047,0.715-2.592,0.271-3.449-0.986   c-0.858-1.26-0.706-2.858,0.341-3.572s2.591-0.271,3.45,0.987C-54.242-93.908-54.395-92.309-55.441-91.596z M-50.475-77.832   c-0.857-1.26-0.705-2.858,0.342-3.572s2.591-0.271,3.449,0.987s0.705,2.858-0.341,3.571   C-48.072-76.131-49.616-76.574-50.475-77.832z M-46.027-64.863c-1.419,0.856-3.002,0.832-3.537-0.055s0.182-2.3,1.6-3.156   c1.419-0.855,3.002-0.83,3.537,0.057S-44.609-65.719-46.027-64.863z"/>
	<path fill-rule="evenodd" clip-rule="evenodd" d="M-122.572-131.494c-9.633,9.768-16.347,27.355-15.325,44.571   c0.129,2.185,0.533,3.254,1.891,4.351c6.969,5.63,16.785,8.412,28.237,9.557c1.44,0.145,3.134-0.754,3.763-1.766   c7.463-12.023,13.133-25.842,13.652-44.809c0.039-1.455,0.157-1.702-0.642-2.3c-6.593-4.941-20.312-8.521-27.31-10.046   C-120.171-132.34-121.874-132.201-122.572-131.494z M-102.001-105.465c0,1.381-1.567,2.5-3.5,2.5s-3.5-1.119-3.5-2.5   s1.567-2.5,3.5-2.5S-102.001-106.846-102.001-105.465z M-111.501-117.965c1.933,0,3.5,1.119,3.5,2.5s-1.567,2.5-3.5,2.5   s-3.5-1.119-3.5-2.5S-113.434-117.965-111.501-117.965z M-118.501-127.965c1.933,0,3.5,1.119,3.5,2.5s-1.567,2.5-3.5,2.5   s-3.5-1.119-3.5-2.5S-120.434-127.965-118.501-127.965z M-127.518-83.635c-0.723,1.178-2.644,1.312-4.291,0.301   s-2.397-2.784-1.676-3.961c0.723-1.178,2.644-1.312,4.291-0.301S-126.796-84.812-127.518-83.635z M-124.518-97.635   c-0.723,1.178-2.644,1.312-4.291,0.301s-2.397-2.784-1.676-3.961c0.723-1.178,2.644-1.312,4.291-0.301   S-123.796-98.812-124.518-97.635z M-117.518-87.635c-0.723,1.178-2.644,1.312-4.291,0.301s-2.397-2.784-1.676-3.961   c0.723-1.178,2.644-1.312,4.291-0.301S-116.796-88.812-117.518-87.635z M-110.518-77.635c-0.723,1.178-2.644,1.312-4.291,0.301   s-2.397-2.784-1.676-3.961c0.723-1.178,2.644-1.312,4.291-0.301S-109.796-78.812-110.518-77.635z M-107.518-91.635   c-0.723,1.178-2.644,1.312-4.291,0.301s-2.397-2.784-1.676-3.961c0.723-1.178,2.644-1.312,4.291-0.301   S-106.796-92.812-107.518-91.635z M-106.514-97.701c0.519-2.802,6.828,0.186,6.228-3.738c3.241,1.735-0.907,6.448-1.246,8.721   C-104.072-93.502-101.881-99.013-106.514-97.701z"/>
	<path d="M60.296-87.123l16.165-16.164l8.194,8.193l9.095-0.31l-12.587-12.586l-2.608-2.607l14.628-14.625   c1.796,0.249,3.683-0.293,5.062-1.675c2.339-2.341,2.339-6.132,0.003-8.472c-2.342-2.34-6.134-2.34-8.473,0   c-1.383,1.383-1.926,3.268-1.677,5.065l-14.625,14.624l-2.606-2.605l-12.586-12.588l-0.31,9.095l8.193,8.195L50.003-97.417   l-16.169-16.168l8.193-8.193l-0.31-9.095l-12.586,12.586l-2.606,2.607L11.9-130.305c0.249-1.796-0.291-3.681-1.674-5.063   c-2.339-2.34-6.131-2.34-8.47-0.001c-2.343,2.341-2.343,6.132,0,8.473c1.38,1.382,3.267,1.924,5.062,1.673l14.625,14.625   l-2.605,2.605L6.249-95.405l9.098,0.309l8.194-8.193l16.165,16.167L2.518-49.935L1.757-38.876l42.758-43.44l4.727-4.801   l0.762-0.773l4.723-4.801l16.039-16.292l1.098,1.099l-16.29,16.038l-4.809,4.729l-0.761,0.749l-4.806,4.734L1.757-38.876   l11.054-0.764l37.192-37.189l37.186,37.188l11.06,0.764l-43.44-42.758l0.683-0.682l42.758,43.439l-0.767-11.059L60.296-87.123z    M44.433-91.851L28.14-107.89l1.098-1.098l16.039,16.296L44.433-91.851z"/>
	<path d="M217.605-130.82c-0.558,3.083-13.598,75.437-13.974,77.6c-0.851,4.887-4.48,8.916-9.242,10.273   c-6.889,1.959-14.085-2.052-16.044-8.935l-19.492-68.566c-1.552-5.459,1.627-11.16,7.084-12.712   c5.456-1.549,11.156,1.627,12.709,7.087l13.723,48.272c1.051,3.686-1.096,7.541-4.781,8.586c-3.691,1.051-7.54-1.099-8.592-4.787   l-11.156-39.26l-4.28,1.215l11.157,39.265c1.721,6.045,8.041,9.567,14.085,7.847c6.045-1.72,9.567-8.037,7.848-14.085   l-13.724-48.27c-2.221-7.816-10.387-12.368-18.202-10.146c-7.816,2.221-12.371,10.39-10.144,18.206l19.486,68.562   c2.627,9.245,12.289,14.63,21.538,12.002c6.395-1.821,11.27-7.234,12.414-13.791c0.375-2.149,13.829-76.817,13.967-77.575   L217.605-130.82z"/>
	<path d="M-314,32.168v-3.109c-12.973-0.484-25.061,1.035-36.193,4.598l22.91-12.229c0.506,0.523,1.219,0.853,2.004,0.853   c1.547,0,2.808-1.255,2.808-2.802c0-1.553-1.261-2.807-2.808-2.807c-1.553,0-2.808,1.254-2.808,2.807   c0,0.195,0.073,0.366,0.116,0.555l-26.942,14.372l-4.567-7.874l-16.521,9.573l4.227,7.302l-37.32,19.914   c-0.512-0.523-1.218-0.853-2.003-0.853c-1.554,0-2.808,1.255-2.808,2.808c0,1.547,1.254,2.802,2.808,2.802   c1.546,0,2.802-1.255,2.802-2.802c0-0.201-0.074-0.371-0.11-0.555l29.749-15.876C-396.233,62.794-407.789,82.327-414,100h3.309   c6.9-19.104,20.146-40.248,40.67-53.573l3.592,6.206l16.529-9.58l-2.99-5.151C-341.074,33.547-328.09,31.635-314,32.168z"/>
	<path d="M-272.904,7.454c-1.429-0.626-2.317,0.106-1.976,1.628l18.426,82.107c0.342,1.521,1.666,2.034,2.943,1.14l21.628-15.143   c1.277-0.895,3.034-0.567,3.904,0.727l7.062,10.504c0.869,1.294,2.024,1.156,2.566-0.306l8.72-23.519   c0.542-1.462,0.185-1.666-0.796-0.453l-3.129,3.877c-0.98,1.213-3.057,2.231-4.615,2.264l-1.122,0.022   c-1.559,0.032-3.627-0.94-4.596-2.162l-35.244-44.436c-0.969-1.222-0.753-1.439,0.479-0.485l47.767,36.979   c1.232,0.954,3.443,1.308,4.912,0.785l27.802-9.896c1.469-0.522,1.503-1.462,0.074-2.088L-272.904,7.454z"/>
	<g>
		<path d="M-75.28,30.327c0-7.024-5.696-12.72-12.72-12.72c-7.024,0-12.72,5.695-12.72,12.72c0,7.023,5.695,12.713,12.72,12.713    C-80.977,43.04-75.28,37.351-75.28,30.327z M-92.895,30.327c0-2.703,2.191-4.895,4.895-4.895c2.696,0,4.888,2.191,4.888,4.895    c0,2.696-2.191,4.888-4.888,4.888C-90.703,35.215-92.895,33.023-92.895,30.327z"/>
		<path d="M-45.562,96.509l-34.813-8.303l34.813-8.31c0.954-0.229,1.542-1.182,1.314-2.129c-0.229-0.954-1.176-1.541-2.137-1.313    l-36.301,8.662c3.63-21.341,25.012-36.245,25.012-55.343C-57.673,13.328-71.25,0-88,0c-16.751,0-30.327,13.328-30.327,29.773    c0,19.098,21.485,34.002,25.018,55.343l-36.313-8.662c-0.947-0.228-1.901,0.359-2.13,1.313c-0.228,0.947,0.359,1.9,1.307,2.129    l34.821,8.31l-34.821,8.303c-0.947,0.228-1.534,1.183-1.307,2.136c0.193,0.809,0.92,1.355,1.722,1.355    c0.132,0,0.27-0.014,0.408-0.049l37.198-8.869c0.774,1.666,2.461,2.834,4.425,2.834s3.644-1.168,4.425-2.834l37.191,8.869    c0.139,0.035,0.276,0.049,0.414,0.049c0.803,0,1.528-0.547,1.723-1.355C-44.02,97.691-44.607,96.736-45.562,96.509z     M-108.546,30.327c0-11.351,9.195-20.546,20.546-20.546c11.345,0,20.546,9.195,20.546,20.546c0,11.345-9.201,20.549-20.546,20.549    C-99.351,50.876-108.546,41.672-108.546,30.327z"/>
	</g>
	<g>
		<g>
			<path d="M71.913,31.086c-0.517,0-0.938-0.424-0.938-0.938V17.064c0-0.518-0.421-0.939-0.937-0.939H29.963     c-0.518,0-0.938,0.422-0.938,0.939v13.084c0,0.514-0.42,0.938-0.938,0.938H0.938C0.421,31.086,0,31.51,0,32.023v14.545     c0,0.512,0.421,0.936,0.938,0.936h43.721c0.518,0,0.941-0.424,0.941-0.936v-3.104c0-0.514,0.424-0.936,0.941-0.936h6.92     c0.518,0,0.94,0.422,0.94,0.936v3.104c0,0.512,0.424,0.936,0.94,0.936h43.721c0.518,0,0.938-0.424,0.938-0.936V32.023     c0-0.514-0.42-0.938-0.938-0.938H71.913z M35.611,31.086c-0.518,0-0.938-0.424-0.938-0.938v-7.438     c0-0.518,0.42-0.938,0.938-0.938h28.779c0.517,0,0.938,0.42,0.938,0.938v7.438c0,0.514-0.421,0.938-0.938,0.938H35.611z"/>
		</g>
		<g>
			<path d="M54.401,62.418c0,0.514-0.423,0.938-0.94,0.938h-6.92c-0.518,0-0.941-0.424-0.941-0.938V51.963     c0-0.514-0.424-0.938-0.941-0.938H0.938C0.421,51.025,0,51.449,0,51.963v30.975c0,0.514,0.421,0.938,0.938,0.938h98.125     c0.518,0,0.938-0.424,0.938-0.938V51.963c0-0.514-0.42-0.938-0.938-0.938H55.342c-0.517,0-0.94,0.424-0.94,0.938V62.418z"/>
		</g>
	</g>
</g>
</svg>